HIERARCHY
ROOT mixamorig:Hips
{
	OFFSET -0.000008 104.274872 1.554316
	CHANNELS 6 Xposition Yposition Zposition Xrotation Yrotation Zrotation
	JOINT mixamorig:Spine
	{
		OFFSET -0.000005 10.181595 0.131519
		CHANNELS 6 Xposition Yposition Zposition Xrotation Yrotation Zrotation
		JOINT mixamorig:Spine1
		{
			OFFSET -0.000000 9.893959 -1.470707
			CHANNELS 6 Xposition Yposition Zposition Xrotation Yrotation Zrotation
			JOINT mixamorig:Spine2
			{
				OFFSET -0.000000 9.220757 -1.370641
				CHANNELS 6 Xposition Yposition Zposition Xrotation Yrotation Zrotation
				JOINT mixamorig:Neck
				{
					OFFSET 0.000001 16.740417 -2.049036
					CHANNELS 6 Xposition Yposition Zposition Xrotation Yrotation Zrotation
					JOINT mixamorig:Head
					{
						OFFSET 0.000000 9.617874 1.685006
						CHANNELS 6 Xposition Yposition Zposition Xrotation Yrotation Zrotation
						JOINT mixamorig:HeadTop_End
						{
							OFFSET 0.000002 22.037354 7.501101
							CHANNELS 6 Xposition Yposition Zposition Xrotation Yrotation Zrotation
							End Site
							{
								OFFSET 0.000168 2310.654297 -282.823242
							}
						}
					}
				}
				JOINT mixamorig:RightShoulder
				{
					OFFSET -4.569970 11.014908 -2.160885
					CHANNELS 6 Xposition Yposition Zposition Xrotation Yrotation Zrotation
					JOINT mixamorig:RightArm
					{
						OFFSET -10.592851 -0.524811 -2.232101
						CHANNELS 6 Xposition Yposition Zposition Xrotation Yrotation Zrotation
						JOINT mixamorig:RightForeArm
						{
							OFFSET -27.841511 0.000031 -0.000004
							CHANNELS 6 Xposition Yposition Zposition Xrotation Yrotation Zrotation
							JOINT mixamorig:RightHand
							{
								OFFSET -28.328831 -0.000015 0.000015
								CHANNELS 6 Xposition Yposition Zposition Xrotation Yrotation Zrotation
								JOINT mixamorig:RightHandThumb1
								{
									OFFSET -2.464806 -1.573990 2.681852
									CHANNELS 6 Xposition Yposition Zposition Xrotation Yrotation Zrotation
									JOINT mixamorig:RightHandThumb2
									{
										OFFSET -3.215179 -1.872803 1.924282
										CHANNELS 6 Xposition Yposition Zposition Xrotation Yrotation Zrotation
										JOINT mixamorig:RightHandThumb3
										{
											OFFSET -2.654831 -1.527969 1.512609
											CHANNELS 6 Xposition Yposition Zposition Xrotation Yrotation Zrotation
											JOINT mixamorig:RightHandThumb4
											{
												OFFSET -2.018814 -1.152008 1.108052
												CHANNELS 6 Xposition Yposition Zposition Xrotation Yrotation Zrotation
												End Site
												{
													OFFSET -188.809540 -114.533607 132.431396
												}
											}
										}
									}
								}
								JOINT mixamorig:RightHandIndex1
								{
									OFFSET -9.108284 -0.517868 2.259835
									CHANNELS 6 Xposition Yposition Zposition Xrotation Yrotation Zrotation
									JOINT mixamorig:RightHandIndex2
									{
										OFFSET -3.699989 0.000000 0.001215
										CHANNELS 6 Xposition Yposition Zposition Xrotation Yrotation Zrotation
										JOINT mixamorig:RightHandIndex3
										{
											OFFSET -2.850006 0.000031 -0.000522
											CHANNELS 6 Xposition Yposition Zposition Xrotation Yrotation Zrotation
											JOINT mixamorig:RightHandIndex4
											{
												OFFSET -2.772186 -0.000015 -0.000020
												CHANNELS 6 Xposition Yposition Zposition Xrotation Yrotation Zrotation
												End Site
												{
													OFFSET -277.218445 0.000000 -0.050231
												}
											}
										}
									}
								}
								JOINT mixamorig:RightHandMiddle1
								{
									OFFSET -9.532516 -0.000031 -0.000023
									CHANNELS 6 Xposition Yposition Zposition Xrotation Yrotation Zrotation
									JOINT mixamorig:RightHandMiddle2
									{
										OFFSET -3.700005 -0.000015 0.003713
										CHANNELS 6 Xposition Yposition Zposition Xrotation Yrotation Zrotation
										JOINT mixamorig:RightHandMiddle3
										{
											OFFSET -2.949974 0.000015 -0.002054
											CHANNELS 6 Xposition Yposition Zposition Xrotation Yrotation Zrotation
											JOINT mixamorig:RightHandMiddle4
											{
												OFFSET -2.946640 0.000000 -0.000156
												CHANNELS 6 Xposition Yposition Zposition Xrotation Yrotation Zrotation
												End Site
												{
													OFFSET -294.664337 0.000000 -0.113670
												}
											}
										}
									}
								}
								JOINT mixamorig:RightHandRing1
								{
									OFFSET -9.103600 -0.043076 -1.865134
									CHANNELS 6 Xposition Yposition Zposition Xrotation Yrotation Zrotation
									JOINT mixamorig:RightHandRing2
									{
										OFFSET -3.379288 0.000000 -0.001055
										CHANNELS 6 Xposition Yposition Zposition Xrotation Yrotation Zrotation
										JOINT mixamorig:RightHandRing3
										{
											OFFSET -2.889687 -0.000015 0.000379
											CHANNELS 6 Xposition Yposition Zposition Xrotation Yrotation Zrotation
											JOINT mixamorig:RightHandRing4
											{
												OFFSET -2.638809 -0.000015 0.000941
												CHANNELS 6 Xposition Yposition Zposition Xrotation Yrotation Zrotation
												End Site
												{
													OFFSET -263.880371 0.000000 0.516020
												}
											}
										}
									}
								}
								JOINT mixamorig:RightHandPinky1
								{
									OFFSET -8.076683 -0.486710 -3.806280
									CHANNELS 6 Xposition Yposition Zposition Xrotation Yrotation Zrotation
									JOINT mixamorig:RightHandPinky2
									{
										OFFSET -3.600014 -0.000015 -0.003747
										CHANNELS 6 Xposition Yposition Zposition Xrotation Yrotation Zrotation
										JOINT mixamorig:RightHandPinky3
										{
											OFFSET -2.099983 0.000000 -0.005739
											CHANNELS 6 Xposition Yposition Zposition Xrotation Yrotation Zrotation
											JOINT mixamorig:RightHandPinky4
											{
												OFFSET -2.115768 -0.000031 -0.003680
												CHANNELS 6 Xposition Yposition Zposition Xrotation Yrotation Zrotation
												End Site
												{
													OFFSET -211.577087 0.000000 -0.350686
												}
											}
										}
									}
								}
							}
						}
					}
				}
				JOINT mixamorig:LeftShoulder
				{
					OFFSET 4.570447 11.014725 -2.160855
					CHANNELS 6 Xposition Yposition Zposition Xrotation Yrotation Zrotation
					JOINT mixamorig:LeftArm
					{
						OFFSET 10.592371 -0.524597 -2.232119
						CHANNELS 6 Xposition Yposition Zposition Xrotation Yrotation Zrotation
						JOINT mixamorig:LeftForeArm
						{
							OFFSET 27.841532 -0.000031 0.000026
							CHANNELS 6 Xposition Yposition Zposition Xrotation Yrotation Zrotation
							JOINT mixamorig:LeftHand
							{
								OFFSET 28.328846 -0.000061 0.000022
								CHANNELS 6 Xposition Yposition Zposition Xrotation Yrotation Zrotation
								JOINT mixamorig:LeftHandThumb1
								{
									OFFSET 2.466141 -1.576172 2.681732
									CHANNELS 6 Xposition Yposition Zposition Xrotation Yrotation Zrotation
									JOINT mixamorig:LeftHandThumb2
									{
										OFFSET 3.217812 -1.872070 1.916482
										CHANNELS 6 Xposition Yposition Zposition Xrotation Yrotation Zrotation
										JOINT mixamorig:LeftHandThumb3
										{
											OFFSET 2.656029 -1.528778 1.514513
											CHANNELS 6 Xposition Yposition Zposition Xrotation Yrotation Zrotation
											JOINT mixamorig:LeftHandThumb4
											{
												OFFSET 2.020889 -1.154053 1.115139
												CHANNELS 6 Xposition Yposition Zposition Xrotation Yrotation Zrotation
												End Site
												{
													OFFSET 190.885437 -115.081749 130.048782
												}
											}
										}
									}
								}
								JOINT mixamorig:LeftHandIndex1
								{
									OFFSET 9.109314 -0.518021 2.259871
									CHANNELS 6 Xposition Yposition Zposition Xrotation Yrotation Zrotation
									JOINT mixamorig:LeftHandIndex2
									{
										OFFSET 3.699989 0.000000 -0.000322
										CHANNELS 6 Xposition Yposition Zposition Xrotation Yrotation Zrotation
										JOINT mixamorig:LeftHandIndex3
										{
											OFFSET 2.850006 0.000000 0.000352
											CHANNELS 6 Xposition Yposition Zposition Xrotation Yrotation Zrotation
											JOINT mixamorig:LeftHandIndex4
											{
												OFFSET 2.774864 -0.000031 -0.000027
												CHANNELS 6 Xposition Yposition Zposition Xrotation Yrotation Zrotation
												End Site
												{
													OFFSET 277.486267 0.000000 -0.009857
												}
											}
										}
									}
								}
								JOINT mixamorig:LeftHandMiddle1
								{
									OFFSET 9.533394 0.000061 0.000044
									CHANNELS 6 Xposition Yposition Zposition Xrotation Yrotation Zrotation
									JOINT mixamorig:LeftHandMiddle2
									{
										OFFSET 3.699989 -0.000015 -0.000231
										CHANNELS 6 Xposition Yposition Zposition Xrotation Yrotation Zrotation
										JOINT mixamorig:LeftHandMiddle3
										{
											OFFSET 2.949997 -0.000015 -0.000059
											CHANNELS 6 Xposition Yposition Zposition Xrotation Yrotation Zrotation
											JOINT mixamorig:LeftHandMiddle4
											{
												OFFSET 2.952896 0.000031 0.000063
												CHANNELS 6 Xposition Yposition Zposition Xrotation Yrotation Zrotation
												End Site
												{
													OFFSET 295.289337 0.000000 0.022810
												}
											}
										}
									}
								}
								JOINT mixamorig:LeftHandRing1
								{
									OFFSET 9.104523 -0.042999 -1.865074
									CHANNELS 6 Xposition Yposition Zposition Xrotation Yrotation Zrotation
									JOINT mixamorig:LeftHandRing2
									{
										OFFSET 3.150009 -0.000031 0.000043
										CHANNELS 6 Xposition Yposition Zposition Xrotation Yrotation Zrotation
										JOINT mixamorig:LeftHandRing3
										{
											OFFSET 2.949982 -0.000015 0.000040
											CHANNELS 6 Xposition Yposition Zposition Xrotation Yrotation Zrotation
											JOINT mixamorig:LeftHandRing4
											{
												OFFSET 2.644348 0.000000 0.000057
												CHANNELS 6 Xposition Yposition Zposition Xrotation Yrotation Zrotation
												End Site
												{
													OFFSET 264.434631 0.000000 0.012105
												}
											}
										}
									}
								}
								JOINT mixamorig:LeftHandPinky1
								{
									OFFSET 8.077789 -0.486847 -3.806259
									CHANNELS 6 Xposition Yposition Zposition Xrotation Yrotation Zrotation
									JOINT mixamorig:LeftHandPinky2
									{
										OFFSET 3.599953 0.000031 0.014727
										CHANNELS 6 Xposition Yposition Zposition Xrotation Yrotation Zrotation
										JOINT mixamorig:LeftHandPinky3
										{
											OFFSET 2.100021 0.000015 0.007705
											CHANNELS 6 Xposition Yposition Zposition Xrotation Yrotation Zrotation
											JOINT mixamorig:LeftHandPinky4
											{
												OFFSET 2.125504 0.000031 0.007517
												CHANNELS 6 Xposition Yposition Zposition Xrotation Yrotation Zrotation
												End Site
												{
													OFFSET 212.550781 0.000000 0.625752
												}
											}
										}
									}
								}
							}
						}
					}
				}
			}
		}
	}
	JOINT mixamorig:RightUpLeg
	{
		OFFSET -8.207787 -6.751648 -1.599560
		CHANNELS 6 Xposition Yposition Zposition Xrotation Yrotation Zrotation
		JOINT mixamorig:RightLeg
		{
			OFFSET -0.000002 -44.370117 0.345942
			CHANNELS 6 Xposition Yposition Zposition Xrotation Yrotation Zrotation
			JOINT mixamorig:RightFoot
			{
				OFFSET 0.000003 -44.423679 -3.043532
				CHANNELS 6 Xposition Yposition Zposition Xrotation Yrotation Zrotation
				JOINT mixamorig:RightToeBase
				{
					OFFSET -0.000002 -8.728671 10.710558
					CHANNELS 6 Xposition Yposition Zposition Xrotation Yrotation Zrotation
					JOINT mixamorig:RightToe_End
					{
						OFFSET -0.000001 -0.000679 9.278119
						CHANNELS 6 Xposition Yposition Zposition Xrotation Yrotation Zrotation
						End Site
						{
							OFFSET 0.000000 -0.067690 927.812134
						}
					}
				}
			}
		}
	}
	JOINT mixamorig:LeftUpLeg
	{
		OFFSET 8.207793 -6.751686 -1.599556
		CHANNELS 6 Xposition Yposition Zposition Xrotation Yrotation Zrotation
		JOINT mixamorig:LeftLeg
		{
			OFFSET -0.000004 -44.370014 0.346954
			CHANNELS 6 Xposition Yposition Zposition Xrotation Yrotation Zrotation
			JOINT mixamorig:LeftFoot
			{
				OFFSET -0.000001 -44.423672 -3.044401
				CHANNELS 6 Xposition Yposition Zposition Xrotation Yrotation Zrotation
				JOINT mixamorig:LeftToeBase
				{
					OFFSET -0.000002 -8.728669 10.710558
					CHANNELS 6 Xposition Yposition Zposition Xrotation Yrotation Zrotation
					JOINT mixamorig:LeftToe_End
					{
						OFFSET -0.000003 -0.000679 9.278133
						CHANNELS 6 Xposition Yposition Zposition Xrotation Yrotation Zrotation
						End Site
						{
							OFFSET 0.000000 -0.068021 927.813477
						}
					}
				}
			}
		}
	}
}
MOTION
Frames: 3
Frame Time: 0.033333
0.000006 104.270477 1.554256 0.000010 0.000003 -0.000113 -0.000005 10.181587 0.131522 0.000001 -0.000003 0.000084 -0.000000 9.893967 -1.470711 0.000001 0.000000 -0.000000 -0.000000 9.220802 -1.370642 0.000000 -0.000000 -0.000000 0.000001 16.740433 -2.049030 0.000000 -0.000000 -0.000000 0.000000 9.617859 1.685014 0.000000 0.000000 0.000000 0.000002 22.037384 7.501101 0.000000 -0.000000 0.000000 -4.569968 11.014880 -2.160881 0.000008 0.000001 -0.000038 -10.592787 -0.524840 -2.231749 76.934773 62.731032 -51.683048 -27.841496 0.000006 0.000578 33.782321 103.283539 -41.982748 -28.328827 0.000021 0.000026 -0.000325 -0.000043 0.000006 -2.464474 -1.574169 2.682192 54.446669 -122.825475 108.874295 -3.214715 -1.872863 1.924699 166.694250 -47.484623 218.338267 -2.654437 -1.527789 1.513055 132.115734 -18.593500 159.879320 -2.018823 -1.152030 1.108065 -0.000000 0.000001 0.000004 -9.108283 -0.517847 2.260393 168.489565 10.488154 -85.036115 -3.699988 -0.000025 0.001767 167.324813 9.466135 -73.205073 -2.850037 0.000071 0.000026 168.183327 7.427124 -64.181054 -2.772147 0.000010 -0.000025 0.000001 -0.000001 -0.000004 -9.532510 -0.000003 0.000530 168.863996 7.217014 -67.171530 -3.699977 0.000016 0.004266 168.996447 8.127742 -71.894052 -2.949982 -0.000015 -0.001505 171.063112 8.218151 -85.103529 -2.946628 0.000003 -0.000149 0.000000 0.000003 0.000001 -9.103608 -0.043029 -1.864573 169.367368 6.706445 -63.944866 -3.379283 0.000006 -0.000497 169.047278 6.414331 -60.795118 -2.889614 -0.000073 0.000955 172.992928 6.978336 -90.432996 -2.638794 -0.000003 0.000937 -0.000000 -0.000001 0.000000 -8.076674 -0.486616 -3.805720 168.501423 6.853599 -60.078153 -3.600003 0.000105 -0.003214 170.362226 1.267271 -10.925899 -2.100002 0.000115 -0.005181 171.443827 1.170065 -12.606723 -2.115781 -0.000028 -0.003673 -0.000006 -0.000002 -0.000001 4.570446 11.014691 -2.160851 -0.000018 0.000010 -0.000021 10.592519 -0.524542 -2.232394 67.337326 -63.509551 44.811727 27.841770 -0.000049 -0.000117 39.825330 -102.270164 48.407729 28.328831 -0.000014 0.000029 0.000017 -0.000089 0.000000 2.466113 -1.576205 2.681848 105.613528 123.930846 -148.954364 3.217792 -1.872043 1.916505 254.200653 54.439801 54.990874 2.656039 -1.528798 1.514591 257.343004 44.516772 49.132829 2.020880 -1.154064 1.115148 -0.000002 0.000006 0.000004 9.109228 -0.517669 2.260033 29.181597 -173.132591 154.067416 3.699862 0.000345 -0.000154 -151.430485 -9.811765 -37.290835 2.849914 0.000384 0.000509 -149.140568 -8.406302 -29.817454 2.774879 -0.000045 -0.000015 0.000003 -0.000000 -0.000000 9.533360 0.000405 0.000205 -150.537151 -4.044657 -15.274927 3.699931 0.000390 -0.000066 -150.810140 -6.036516 -22.888444 2.949922 0.000341 0.000129 -148.014093 -7.483469 -25.713251 2.952873 -0.000031 0.000075 -0.000002 -0.000000 0.000000 9.104509 -0.042649 -1.864920 -148.889368 -1.840765 -6.611364 3.149982 0.000376 0.000215 -148.758884 -1.545452 -5.528766 2.949920 0.000395 0.000225 -145.495897 -5.126961 -16.411295 2.644318 0.000046 0.000054 0.000002 -0.000000 0.000000 8.077753 -0.486503 -3.806093 -150.134552 -1.505771 -7.282359 3.599957 0.000361 0.014892 -147.742647 1.130953 2.416070 2.099983 0.000376 0.007867 -148.597582 -0.883515 -4.521671 2.125503 -0.000030 0.007522 0.000002 -0.000000 0.000000 -8.207786 -6.751667 -1.599560 -0.077001 -0.000003 0.000080 -0.000002 -44.370110 0.345938 0.153719 -0.000000 -0.000000 0.000000 -44.423679 -3.043532 -0.076700 0.000000 -0.000002 -0.000006 -8.728667 10.710559 -0.000009 -0.000000 -0.000000 -0.000001 -0.000679 9.278123 0.000000 -0.000000 -0.000000 8.207792 -6.751710 -1.599556 -0.074518 -0.000003 0.000081 -0.000002 -44.370014 0.346960 0.148822 0.000002 0.000000 -0.000001 -44.423664 -3.044403 -0.074314 0.000000 -0.000002 -0.000004 -8.728671 10.710558 0.000007 -0.000000 -0.000000 0.000000 -0.000680 9.278137 -0.000000 0.000000 -0.000001 
0.000006 104.270477 1.554256 0.000010 0.000003 -0.000113 -0.000005 10.181587 0.131522 0.000001 -0.000003 0.000084 -0.000000 9.893967 -1.470711 0.000001 0.000000 -0.000000 -0.000000 9.220802 -1.370642 0.000000 -0.000000 -0.000000 0.000001 16.740433 -2.049030 0.000000 -0.000000 -0.000000 0.000000 9.617859 1.685014 0.000000 0.000000 0.000000 0.000002 22.037384 7.501101 0.000000 -0.000000 0.000000 -4.569968 11.014880 -2.160881 0.000008 0.000001 -0.000038 -10.592793 -0.524846 -2.231752 77.360246 61.770195 -51.175390 -27.841496 0.000007 0.000586 33.720900 103.350673 -41.954980 -28.328831 0.000007 0.000023 -0.000323 -0.000044 0.000007 -2.464469 -1.574162 2.682207 50.195948 -122.929622 105.190316 -3.214713 -1.872803 1.924710 158.836049 -43.881175 208.641898 -2.654514 -1.527674 1.513015 126.271319 -3.839441 137.357959 -2.018831 -1.152013 1.108063 -0.000002 -0.000004 0.000004 -9.108296 -0.517840 2.260400 166.614965 10.628070 -77.160230 -3.700000 0.000026 0.001778 165.104715 9.556334 -65.014822 -2.850078 0.000111 0.000010 165.452426 7.558263 -54.716714 -2.772157 0.000003 -0.000009 0.000004 -0.000000 -0.000003 -9.532507 0.000005 0.000538 167.634999 7.958767 -66.654805 -3.699996 0.000011 0.004266 167.513067 8.475187 -67.378812 -2.950022 0.000020 -0.001484 169.477484 8.209519 -75.787779 -2.946622 0.000012 -0.000163 -0.000002 -0.000001 -0.000001 -9.103596 -0.043069 -1.864565 169.781318 7.628956 -72.974813 -3.379300 0.000007 -0.000493 168.381812 6.830275 -60.964431 -2.889658 -0.000030 0.000956 172.016675 6.908297 -82.344324 -2.638811 0.000017 0.000937 -0.000001 0.000004 0.000001 -8.076658 -0.486671 -3.805724 168.661495 7.781657 -67.443310 -3.600023 0.000090 -0.003200 170.336489 1.807224 -16.992782 -2.099998 0.000099 -0.005182 171.203732 1.308179 -14.004551 -2.115778 -0.000034 -0.003685 -0.000001 -0.000003 -0.000002 4.570446 11.014691 -2.160851 -0.000018 0.000010 -0.000021 10.592523 -0.524533 -2.232396 67.256408 -62.945056 44.306556 27.841761 -0.000069 -0.000122 39.855469 -102.362269 48.513498 28.328838 -0.000013 0.000021 0.000021 -0.000089 0.000000 2.466138 -1.576174 2.681856 107.570357 132.858654 -152.011433 3.217813 -1.872012 1.916543 266.978106 45.114110 41.883253 2.656051 -1.528757 1.514599 267.582715 36.221425 39.030276 2.020890 -1.154081 1.115144 0.000000 0.000004 0.000009 9.109215 -0.517676 2.260036 29.975665 -171.505189 149.015644 3.699814 0.000314 -0.000159 -153.070482 -12.656386 -49.729702 2.849875 0.000358 0.000530 -152.102958 -10.794360 -41.650080 2.774888 -0.000045 -0.000012 0.000009 0.000000 -0.000000 9.533342 0.000396 0.000204 -149.208529 -5.155156 -18.548682 3.699898 0.000363 -0.000066 -152.500980 -7.973962 -31.792867 2.949888 0.000354 0.000105 -152.431886 -9.223052 -36.406117 2.952874 -0.000015 0.000049 0.000001 0.000000 -0.000000 9.104483 -0.042668 -1.864915 -149.438747 -4.157927 -15.141973 3.149946 0.000420 0.000213 -150.111630 -4.458401 -16.600220 2.949886 0.000415 0.000222 -148.069581 -6.923305 -23.881442 2.644318 0.000031 0.000059 0.000002 0.000000 -0.000000 8.077709 -0.486491 -3.806102 -150.934477 -5.023876 -20.628387 3.599939 0.000398 0.014892 -148.212988 -0.696233 -3.873859 2.099991 0.000389 0.007879 -149.183735 -1.120684 -5.458122 2.125496 -0.000014 0.007511 -0.000002 -0.000000 0.000000 -8.207786 -6.751667 -1.599560 -0.077001 -0.000003 0.000080 -0.000002 -44.370110 0.345938 0.153719 -0.000000 -0.000000 0.000000 -44.423679 -3.043532 -0.076700 0.000000 -0.000002 -0.000006 -8.728667 10.710559 -0.000009 -0.000000 -0.000000 -0.000001 -0.000679 9.278123 0.000000 -0.000000 -0.000000 8.207792 -6.751710 -1.599556 -0.074518 -0.000003 0.000081 -0.000002 -44.370014 0.346960 0.148822 0.000002 0.000000 -0.000001 -44.423664 -3.044403 -0.074314 0.000000 -0.000002 -0.000004 -8.728671 10.710558 0.000007 -0.000000 -0.000000 0.000000 -0.000680 9.278137 -0.000000 0.000000 -0.000001 
0.000006 104.270477 1.554256 0.000010 0.000003 -0.000113 -0.000005 10.181587 0.131522 0.000001 -0.000003 0.000084 -0.000000 9.893967 -1.470711 0.000001 0.000000 -0.000000 -0.000000 9.220802 -1.370642 0.000000 -0.000000 -0.000000 0.000001 16.740433 -2.049030 0.000000 -0.000000 -0.000000 0.000000 9.617859 1.685014 0.000000 0.000000 0.000000 0.000002 22.037384 7.501101 0.000000 -0.000000 0.000000 -4.569968 11.014880 -2.160881 0.000008 0.000001 -0.000038 -10.592788 -0.524851 -2.231758 77.524730 61.956141 -51.471571 -27.841492 -0.000020 0.000589 33.984310 103.712741 -42.523156 -28.328842 0.000022 0.000026 -0.000326 -0.000044 0.000009 -2.464466 -1.574177 2.682202 49.627325 -120.958730 103.525157 -3.214721 -1.872785 1.924706 156.434814 -42.971889 205.340253 -2.654577 -1.527647 1.512990 125.205400 6.858035 120.771664 -2.018822 -1.151987 1.108060 -0.000003 -0.000003 0.000000 -9.108309 -0.517848 2.260393 166.488402 10.581465 -76.383378 -3.700022 0.000025 0.001774 165.081451 8.841794 -60.943517 -2.850072 0.000123 0.000034 165.699419 6.707606 -50.070713 -2.772169 -0.000005 -0.000000 -0.000002 -0.000001 -0.000001 -9.532528 -0.000006 0.000541 167.894656 8.331875 -70.219508 -3.700014 0.000023 0.004270 167.595453 8.379464 -67.120979 -2.950026 0.000012 -0.001487 169.831616 7.578751 -73.255725 -2.946621 0.000004 -0.000163 -0.000006 0.000002 0.000001 -9.103598 -0.043082 -1.864564 169.918345 8.466812 -79.568453 -3.379239 -0.000037 -0.000490 169.601766 7.887666 -74.485146 -2.889609 -0.000071 0.000936 173.273812 6.993947 -92.923002 -2.638794 0.000011 0.000937 -0.000001 0.000002 0.000000 -8.076665 -0.486663 -3.805717 168.175445 8.210243 -68.121281 -3.600045 0.000079 -0.003204 170.667235 2.682069 -27.539053 -2.100010 0.000107 -0.005184 171.175797 1.672537 -18.487264 -2.115792 -0.000054 -0.003679 0.000003 0.000002 -0.000003 4.570446 11.014691 -2.160851 -0.000018 0.000010 -0.000021 10.592518 -0.524527 -2.232392 67.365685 -63.191148 44.582772 27.841774 -0.000061 -0.000118 39.945678 -102.284883 48.559534 28.328831 -0.000028 0.000033 0.000023 -0.000090 0.000001 2.466129 -1.576172 2.681859 97.484824 128.124677 -144.240973 3.217796 -1.872030 1.916524 255.944291 49.244708 51.336593 2.656026 -1.528786 1.514598 264.126612 38.772703 42.159209 2.020898 -1.154057 1.115145 0.000004 -0.000000 0.000003 9.109219 -0.517692 2.260062 37.706134 -167.881556 145.479573 3.699843 0.000314 -0.000129 -143.118008 -15.537019 -44.520519 2.849876 0.000361 0.000548 -142.247869 -13.340213 -37.762941 2.774880 -0.000031 -0.000038 -0.000000 -0.000000 -0.000000 9.533325 0.000386 0.000228 -141.229338 -9.144425 -25.594254 3.699887 0.000376 -0.000048 -146.010962 -11.744783 -37.195455 2.949874 0.000328 0.000130 -144.801527 -12.279178 -37.469240 2.952872 -0.000032 0.000070 0.000001 -0.000001 0.000000 9.104460 -0.042686 -1.864893 -140.283561 -8.239743 -22.560730 3.149924 0.000405 0.000246 -141.590942 -7.191243 -20.455734 2.949897 0.000365 0.000242 -138.334157 -9.200834 -23.882583 2.644317 0.000015 0.000049 0.000000 -0.000000 0.000000 8.077713 -0.486554 -3.806064 -138.911431 -8.095261 -22.319200 3.599926 0.000348 0.014931 -133.853580 -2.800442 -7.480312 2.099951 0.000339 0.007933 -132.784656 -5.162201 -12.573379 2.125503 -0.000015 0.007516 0.000001 -0.000001 0.000000 -8.207786 -6.751667 -1.599560 -0.077001 -0.000003 0.000080 -0.000002 -44.370110 0.345938 0.153719 -0.000000 -0.000000 0.000000 -44.423679 -3.043532 -0.076700 0.000000 -0.000002 -0.000006 -8.728667 10.710559 -0.000009 -0.000000 -0.000000 -0.000001 -0.000679 9.278123 0.000000 -0.000000 -0.000000 8.207792 -6.751710 -1.599556 -0.074518 -0.000003 0.000081 -0.000002 -44.370014 0.346960 0.148822 0.000002 0.000000 -0.000001 -44.423664 -3.044403 -0.074314 0.000000 -0.000002 -0.000004 -8.728671 10.710558 0.000007 -0.000000 -0.000000 0.000000 -0.000680 9.278137 -0.000000 0.000000 -0.000001 
